<svg id="Слой_1" data-name="Слой 1" xmlns="http://www.w3.org/2000/svg" viewBox="0 0 603 345"><path d="M96.3 213.6l6.1 5.9a20.43 20.43 0 0 0-3.3 4.8 13.2 13.2 0 0 0-1.2 5.4c0 7 3.7 12.5 11.2 16.6a42.77 42.77 0 0 0 20.7 4.9 42.81 42.81 0 0 0 21.8-5.5c7.8-4.5 11.6-10.5 11.6-18.1q0-15-22.8-21.3c-14.3-3.5-28.6-7.1-42.7-10.8q-23.1-9.45-23.1-32.1c0-13.8 6-24.3 18.1-31.5 10.1-6.1 22.5-9.1 37.2-9.1a81.37 81.37 0 0 1 32.8 6.5 63.21 63.21 0 0 1 25.4 20.1l-22.5 19.7-6.7-4.5a11.52 11.52 0 0 0 1.8-5.9c0-6.2-3.8-10.9-11.3-14a49.15 49.15 0 0 0-19.5-3.8c-9.9 0-17.3 1.7-22.2 4.9a13.75 13.75 0 0 0-6.3 11.9c0 7.7 7.8 13.6 23.2 17.5 25.1 6.3 39.6 10.4 43.6 12.4q23.4 11.25 23.4 35.7c0 15-6.6 26.8-19.7 35.2q-16.95 10.8-41.1 10.8c-15.3 0-27.7-2.9-37.5-8.6-8.9-5.3-17.6-14.5-26-27.6l29-19.5m172.3-24.8c8.5 0 15.3-1.6 20.5-4.7 6.1-3.8 9.2-9.8 9.2-17.8 0-8.2-3.2-14.4-9.6-18.5q-8.25-5.1-21.3-5.1H244v46.1h24.6m54.9 61a26.37 26.37 0 0 0 5.4 6.4 14.59 14.59 0 0 0 6.9 2.9v7.3h-34.7l-36-60.7H244v37.4c0 5.4.4 9.2 1.3 11.5s3.3 3.7 7.4 4.5v7.3h-44.2v-7.3c3.9-.7 6.3-2.4 7.5-5.3.8-2 1.2-5.5 1.2-10.7V149c0-5.4-.3-8.9-1-10.6-1-2.8-3.6-4.6-7.7-5.4v-7.2h70.7c12.8 0 23.4 3.1 31.8 9.2q14.1 10.5 14.1 28.8a37.53 37.53 0 0 1-8.7 24.8 39.39 39.39 0 0 1-23 13.2l30.1 48M449 212.2c0-5.4-.4-8.9-1-10.6-1.1-2.8-3.6-4.5-7.7-5.3V189h43.1v7.3q-5.1.9-6.3 4.5c-.9 2.4-1.3 6.2-1.3 11.4v35.5a41.56 41.56 0 0 0 .5 7.9c.3 1.9 2.7 3.1 7.1 3.5v7.3a166.46 166.46 0 0 1-17.8 2.2c-6.1.5-12.7.7-19.7.7-22.1 0-40.7-4.2-56-12.8a74 74 0 0 1-29.5-29.7 70.38 70.38 0 0 1-8.9-33.9q0-29.25 20.2-49.7t49.7-20.4a84.08 84.08 0 0 1 32.5 6.4 59.48 59.48 0 0 1 25.2 19l-21.6 24.4-7.3-4.9c2.5-3.1 3.7-6.2 3.7-9 0-6-3.5-10.5-10.4-13.8a41.5 41.5 0 0 0-18.5-4c-13.6 0-24.6 5.2-33.1 15.4q-12 14.55-12 35.4c0 17.4 5.9 31.8 17.7 43.4s26.4 17.3 43.7 17.3h7.7z" fill="#231f20"/><path d="M.2 203.9V345h147.4v-44.2H47v-96.9z" fill="#23a3dc"/><path d="M.2 188.3V47.1h147.4v44.2H47v97z" fill="#a7a9ac"/><path d="M550.5 188.3V47.1H403.1v44.2h100.7v97z" fill="#a497c8"/><path d="M550.5 203.9V345H403.1v-44.2h100.7v-96.9z" fill="#0d4da1"/><path d="M22.4 9.8a10.91 10.91 0 0 1-.6-1.1 5 5 0 0 0-.8-1.4 8.67 8.67 0 0 0-2.7-2.7 8.29 8.29 0 0 0-4.6-1.2 8.75 8.75 0 0 0-6.5 2.7c-1.7 1.8-2.6 4.7-2.6 8.8s.9 7.2 2.7 9a8.54 8.54 0 0 0 6.4 2.7 7.77 7.77 0 0 0 5.1-1.6 9.69 9.69 0 0 0 2.7-3.4 9 9 0 0 0 .8-2.1c.1-.7.3-1.3.3-1.7h-7.7v-3.4H27v1.3a22.63 22.63 0 0 1-.1 2.5 13.1 13.1 0 0 1-.6 2.7 14.29 14.29 0 0 1-3.7 6.2c-1.9 1.9-4.9 2.8-8.9 2.8-4.9 0-8.3-1.4-10.3-4.1a18.72 18.72 0 0 1-3.1-9.2v-.8a2.49 2.49 0 0 1-.1-.8 2.77 2.77 0 0 1 .1-.9v-.8a18.36 18.36 0 0 1 3.1-9.1C5.4 1.4 8.8 0 13.7 0c.7 0 1.5.1 2.7.2a9.81 9.81 0 0 1 3.5 1 12.51 12.51 0 0 1 3.7 2.6 12.11 12.11 0 0 1 2.7 4.8zm18.1 7.3v12.2h-4V.7h10.3a10.87 10.87 0 0 1 1.8.1 12 12 0 0 1 5.2 1.8q2.4 1.65 2.4 6.3a7.55 7.55 0 0 1-1.5 4.7c-1 1.3-2.8 2.3-5.5 2.9l8.2 12.8h-4.7l-7.9-12.2h-4.3m0-13v9.6h4a11.45 11.45 0 0 0 5.4-1.1 4.09 4.09 0 0 0 1.9-3.9c0-2.1-.7-3.4-2.2-3.9a15.91 15.91 0 0 0-5-.7zM64.7 15a28.93 28.93 0 0 1 .4-4.5 30.92 30.92 0 0 1 .9-3.1c.3-.6.5-1.1.7-1.5s.5-.7.6-.8a4.35 4.35 0 0 0 .4-.7 3.39 3.39 0 0 1 .6-.6 12 12 0 0 1 3.6-2.6A13.57 13.57 0 0 1 78.2 0c.7 0 1.6.1 2.5.1.9.2 1.8.4 2.8.7a11.81 11.81 0 0 1 2.9 1.6 8.67 8.67 0 0 1 2.7 2.7 17.72 17.72 0 0 1 1.5 3.1 14.74 14.74 0 0 1 .8 3.5 10 10 0 0 1 .2 1.6c0 .6.1 1.2.1 1.7s-.1 1.1-.1 1.6a7.77 7.77 0 0 1-.2 1.6 13.71 13.71 0 0 1-.8 3.5 18.67 18.67 0 0 1-1.5 3.2 11.53 11.53 0 0 1-2.7 2.7 8.93 8.93 0 0 1-2.9 1.5 15.67 15.67 0 0 1-2.8.6 25 25 0 0 1-2.5.2 15 15 0 0 1-6.2-1.1 11.87 11.87 0 0 1-3.6-2.5c-.2-.3-.5-.5-.6-.7s-.4-.5-.5-.7a3.28 3.28 0 0 0-.6-.8c-.2-.4-.4-1-.7-1.6a24.63 24.63 0 0 1-.9-3.1 26.49 26.49 0 0 1-.4-4.4m4.4-.1c0 3.7.8 6.6 2.4 8.6a8.07 8.07 0 0 0 6.6 3.1 7.61 7.61 0 0 0 5.9-2.2 11.77 11.77 0 0 0 2.7-4.7 11.78 11.78 0 0 0 .4-2.5 19.88 19.88 0 0 0 .2-2.2 18 18 0 0 0-.2-2.2 11.71 11.71 0 0 0-.4-2.6A12.48 12.48 0 0 0 84 5.5c-1.3-1.4-3.2-2.1-5.9-2.1-.4 0-1 .1-1.8.2a6.17 6.17 0 0 0-2.4.8 8.65 8.65 0 0 0-3.3 3.3q-1.5 2.4-1.5 7.2zm32-14.2h4.1V20a10.76 10.76 0 0 0 1.3 4.5q1.35 2.1 5.7 2.1c3.2 0 5.1-.8 5.9-2.4a13.41 13.41 0 0 0 1.1-6V.7h4.1v19c0 .5-.1 1-.1 1.5a13.09 13.09 0 0 1-2.5 6c-1.4 1.8-4.3 2.7-8.5 2.7s-7.1-.9-8.5-2.7a12.1 12.1 0 0 1-2.5-6c0-.5-.1-1-.1-1.5V.7zm37.4 18.2v10.4h-4.1V.7h10.2q5.25 0 7.8 2.4a8.36 8.36 0 0 1 2.6 6.4q0 4-1.8 6a9.2 9.2 0 0 1-3.9 2.7 16.66 16.66 0 0 1-2.9.6c-.9 0-1.6.1-2.1.1h-5.8m0-3.4h5.4a7.6 7.6 0 0 0 1.4-.1 5.55 5.55 0 0 0 1.7-.3 6.26 6.26 0 0 0 2.5-1.6 5.56 5.56 0 0 0 1.1-3.8 5.15 5.15 0 0 0-1.2-3.7 6.9 6.9 0 0 0-2.7-1.6 5.66 5.66 0 0 0-1.8-.3h-6.4zm54-.5a20.34 20.34 0 0 1 .4-4.5 30.9 30.9 0 0 1 .9-3.1c.3-.6.5-1.1.7-1.5s.4-.7.6-.8a5.73 5.73 0 0 1 .4-.7 2.65 2.65 0 0 1 .5-.6 15.21 15.21 0 0 1 3.6-2.6A14.31 14.31 0 0 1 206 0c.7 0 1.5.1 2.5.1.9.2 1.8.4 2.8.7a17 17 0 0 1 2.9 1.6 9.63 9.63 0 0 1 2.6 2.7 13 13 0 0 1 1.6 3.1 22.07 22.07 0 0 1 .8 3.5c.1.6.1 1.1.2 1.6v3.3c-.1.6-.1 1.1-.2 1.6a19.82 19.82 0 0 1-.8 3.5 13.69 13.69 0 0 1-1.6 3.2 13.44 13.44 0 0 1-2.6 2.7 11.5 11.5 0 0 1-2.9 1.5 15.67 15.67 0 0 1-2.8.6c-1 .1-1.8.2-2.5.2a15.48 15.48 0 0 1-6.3-1.1 15.08 15.08 0 0 1-3.6-2.5 4.35 4.35 0 0 0-.6-.7 4.34 4.34 0 0 0-.4-.7c-.2-.2-.3-.5-.6-.8s-.4-1-.7-1.6a24.64 24.64 0 0 1-.9-3.1 18.86 18.86 0 0 1-.4-4.4m4.4-.1c0 3.7.8 6.6 2.4 8.6a7.94 7.94 0 0 0 6.6 3.1 7.76 7.76 0 0 0 5.9-2.2 11.77 11.77 0 0 0 2.7-4.7c.2-.9.3-1.7.4-2.5a19.89 19.89 0 0 0 .2-2.2 18 18 0 0 0-.2-2.2 23.35 23.35 0 0 0-.4-2.6 12.48 12.48 0 0 0-2.7-4.7c-1.3-1.4-3.3-2.1-5.9-2.1-.4 0-1 .1-1.8.2a5.69 5.69 0 0 0-2.4.8 8.21 8.21 0 0 0-3.4 3.3 15 15 0 0 0-1.4 7.2zm36.2-10.8v8.2h10.7v3.4h-10.7v13.6H229V.7h16.8v3.4zm73.1-.6l-1.8 2.7a14 14 0 0 1-1.8-1.2 8.86 8.86 0 0 0-1.7-.8 8 8 0 0 0-2.2-.6 16.59 16.59 0 0 0-2.4-.2 7.4 7.4 0 0 0-6.4 3.2 14.23 14.23 0 0 0-2.2 8c0 4 .9 7 2.7 8.8a9.85 9.85 0 0 0 5.7 3.1h1.4a6.22 6.22 0 0 0 3.3-.8 12.36 12.36 0 0 0 2.5-1.8l.6-.6c.2-.2.3-.4.5-.5l2.7 2.3a12.88 12.88 0 0 1-1.6 1.7 10.92 10.92 0 0 1-1.7 1.3 12.08 12.08 0 0 1-4.1 1.5 21.43 21.43 0 0 1-2.5.3c-4.4 0-7.8-1.5-10.2-4.4a16.52 16.52 0 0 1-3.7-10.9q0-6.3 3-9.6A16.54 16.54 0 0 1 293 .5c.7-.1 1.3-.3 1.9-.4a11.48 11.48 0 0 1 1.9-.1 18.21 18.21 0 0 1 5.2.8 10.87 10.87 0 0 1 4.2 2.7zm8.2 11.5a28.92 28.92 0 0 1 .4-4.5 30.9 30.9 0 0 1 .9-3.1 10.19 10.19 0 0 1 .8-1.5 3.78 3.78 0 0 1 .5-.8 4.35 4.35 0 0 0 .4-.7 2.65 2.65 0 0 0 .5-.6 14.07 14.07 0 0 1 3.7-2.6 13.57 13.57 0 0 1 6.3-1.2c.8 0 1.6.1 2.5.1a22.91 22.91 0 0 1 2.8.7 14 14 0 0 1 2.9 1.6 8.67 8.67 0 0 1 2.7 2.7 12.66 12.66 0 0 1 1.5 3.1 14.74 14.74 0 0 1 .8 3.5 10 10 0 0 1 .2 1.6v3.3a7.77 7.77 0 0 1-.2 1.6 13.71 13.71 0 0 1-.8 3.5 13.31 13.31 0 0 1-1.5 3.2 11.53 11.53 0 0 1-2.7 2.7 10.05 10.05 0 0 1-2.9 1.5 12.66 12.66 0 0 1-2.8.6 22.86 22.86 0 0 1-2.5.2 15 15 0 0 1-6.2-1.1 11.87 11.87 0 0 1-3.6-2.5 3.19 3.19 0 0 1-.6-.7c-.2-.3-.4-.5-.5-.7a9.22 9.22 0 0 0-.5-.8 11.88 11.88 0 0 1-.8-1.6 24.64 24.64 0 0 1-.9-3.1 26.49 26.49 0 0 1-.4-4.4m4.4-.1c0 3.7.8 6.6 2.4 8.6a8.07 8.07 0 0 0 6.6 3.1 7.61 7.61 0 0 0 5.9-2.2 11.77 11.77 0 0 0 2.7-4.7c.2-.9.4-1.7.5-2.5s.1-1.6.1-2.2-.1-1.4-.1-2.2a23.8 23.8 0 0 0-.5-2.6 12.48 12.48 0 0 0-2.7-4.7c-1.3-1.4-3.2-2.1-5.9-2.1-.4 0-1 .1-1.8.2a6.17 6.17 0 0 0-2.4.8 8.65 8.65 0 0 0-3.3 3.3q-1.5 2.4-1.5 7.2zm43.5 9l-7.5-18.2v23.6h-4V.7h5.6l7.3 17.7L371 .7h5.6v28.6h-4.1V5.7l-7.4 18.2zm29.5-5v10.4h-4.1V.7h10.2q5.1 0 7.8 2.4a8.36 8.36 0 0 1 2.6 6.4q0 4-1.8 6a9.84 9.84 0 0 1-3.9 2.7 16.66 16.66 0 0 1-2.9.6c-.9 0-1.6.1-2.1.1h-5.8m0-3.4h5.4a6.15 6.15 0 0 0 1.3-.1 5.66 5.66 0 0 0 1.8-.3 6.26 6.26 0 0 0 2.5-1.6 5.56 5.56 0 0 0 1.1-3.8 4.78 4.78 0 0 0-1.3-3.7 6 6 0 0 0-2.6-1.6 6.15 6.15 0 0 0-1.8-.3h-6.4zm30.9 6l-2.9 7.8h-4.6L427.6.7h3.7l12.3 28.6h-4.5l-2.9-7.8h-13.5m11.8-3.4l-5.1-12.5-5.1 12.5zm21.8-10.5v21.7h-4V.6h4l13.1 21.3V.6h4.1v28.7h-4.1zm28-6.9h4.1v28.6h-4.1zm31.8 3.4h-12.7v8.2h10.8v3.4h-10.8v10.2h14.4v3.4h-18.5V.7h16.8zM548.3 8l-3.6 1a8.13 8.13 0 0 0-1.4-2.8 9.76 9.76 0 0 0-2.1-1.6 6.53 6.53 0 0 0-2.2-.8 8.47 8.47 0 0 0-1.3-.1c-.1 0-.2-.1-.4-.1h-.7a.31.31 0 0 1-.2.1h-.2a5.29 5.29 0 0 0-3.4 1.1 3.41 3.41 0 0 0-1.3 2.1.6.6 0 0 0-.1.4v.3a3.65 3.65 0 0 0 1.4 2.8 10.53 10.53 0 0 0 2.9 1.7c.6.2 1 .3 1.5.5s.9.3 1.3.4.9.3 1.4.5a7.84 7.84 0 0 1 1.4.5 14.75 14.75 0 0 1 4.7 2.7 6.51 6.51 0 0 1 2.1 5.3 6.48 6.48 0 0 1-1.6 4.8 9.16 9.16 0 0 1-3.7 2.3 15.05 15.05 0 0 1-3.3.7 17.67 17.67 0 0 1-1.9.1h-.1a12.7 12.7 0 0 1-7-1.7 12.1 12.1 0 0 1-3.7-3.8 11.92 11.92 0 0 1-.8-2c-.2-.7-.4-1.3-.5-1.8l3.9-1.2a8.79 8.79 0 0 0 2.4 4.5 8.36 8.36 0 0 0 3.3 2l1.2.3c.4 0 .9.1 1.2.1s.5-.1.7-.1h.7a10.42 10.42 0 0 0 3.4-1.1 3.46 3.46 0 0 0 1.5-3.2 3.84 3.84 0 0 0-1.3-3 12.42 12.42 0 0 0-3-1.6 6.89 6.89 0 0 0-.8-.3c-.3-.1-.5-.2-.8-.3a2.07 2.07 0 0 1-.6-.2 3.54 3.54 0 0 0-.6-.1 29.89 29.89 0 0 1-6.5-3.1 6.38 6.38 0 0 1-3-5.9 6.93 6.93 0 0 1 2.3-5.1 10.08 10.08 0 0 1 6.6-2.3h1.8c3.3.1 5.8 1 7.4 2.7a10.18 10.18 0 0 1 3 5.3zm36 53.8h1.7c2 0 3.7-.6 3.7-2.3 0-1.4-1.1-2.4-3.4-2.4a8.09 8.09 0 0 0-2 .2zm-.1 8.8h-3.6V54.9a42.26 42.26 0 0 1 6-.4c2.9 0 4.3.4 5.4 1.2a4.07 4.07 0 0 1 1.6 3.3c0 2-1.5 3.2-3.3 3.8v.2c1.6.5 2.3 1.7 2.8 3.8a18.94 18.94 0 0 0 1.1 3.8h-3.8c-.5-.5-.7-1.9-1.2-3.8-.3-1.6-1.3-2.4-3.3-2.4h-1.7zm-9.7-8.1A12.21 12.21 0 0 0 586.8 75c6.8.1 11.9-5.5 11.9-12.4S593.6 50 586.6 50a12.23 12.23 0 0 0-12.1 12.5m28.3 0a16.15 16.15 0 0 1-32.3 0c0-8.8 7.2-15.7 16.3-15.7a15.73 15.73 0 0 1 16 15.7z" fill="#231f20"/></svg>